<?xml version="1.0" encoding="UTF-8"?>
<svg id="Capa_2" data-name="Capa 2" xmlns="http://www.w3.org/2000/svg" viewBox="0 0 32 32">
  <defs>
    <style>
      .cls-1 {
        fill: #ff9000;
      }
    </style>
  </defs>
  <g id="Logos">
    <g>
      <rect class="cls-1" width="32" height="32" rx="2.5" ry="2.5"/>
      <g>
        <path d="M15.12,14.1c0,1.73-.75,2.59-2.24,2.59h-5.94v10.08h-3.67V5.23h9.6c1.49,0,2.24.85,2.24,2.56v6.31ZM11.42,13.12v-4.32h-4.48v4.32h4.48Z"/>
        <path d="M28.72,24.23c0,1.69-.75,2.54-2.24,2.54h-7.64c-1.45,0-2.18-.85-2.18-2.54V7.79c0-1.71.73-2.56,2.18-2.56h7.64c1.49,0,2.24.85,2.24,2.56v6.51h-3.65v-5.49h-4.75v14.39h4.75v-5.85h3.65v6.88Z"/>
      </g>
    </g>
  </g>
</svg>