<?xml version="1.0" encoding="UTF-8"?>
<svg id="Capa_2" data-name="Capa 2" xmlns="http://www.w3.org/2000/svg" viewBox="0 0 165.45 233.41">
  <defs>
    <style>
      .cls-1 {
        fill: #fff;
      }

      .cls-2 {
        fill: #ff9000;
      }
    </style>
  </defs>
  <g id="Logos">
    <g>
      <path class="cls-2" d="M149.74,233.41H15.7c-8.67,0-15.7-6.13-15.7-13.7V25.27c0-7.57,7.06-12.96,15.7-13.7C32.66,10.12,82.79,0,82.79,0c0,0,50.03,10.12,66.95,11.57,8.64.74,15.7,6.13,15.7,13.7v194.44c0,7.57-7.03,13.7-15.7,13.7Z"/>
      <g>
        <path class="cls-1" d="M77.78,65.64c0,8.67-4.25,13-12.74,13H31.29v50.5H10.46V21.21h54.59c8.49,0,12.74,4.27,12.74,12.82v31.61ZM56.76,60.74v-21.63h-25.47v21.63h25.47Z"/>
        <path class="cls-1" d="M155.12,116.4c0,8.49-4.25,12.74-12.74,12.74h-43.46c-8.25,0-12.38-4.24-12.38-12.74V34.03c0-8.55,4.13-12.82,12.38-12.82h43.46c8.49,0,12.74,4.27,12.74,12.82v32.59h-20.75v-27.52h-26.98v72.13h26.98v-29.3h20.75v34.46Z"/>
        <path class="cls-1" d="M54.34,223.87h-13.36v-39.74h-17.94v39.74h-13.24v-88.59h13.24v36.51h17.94v-36.51h13.36v88.59Z"/>
        <path class="cls-1" d="M105.37,215.78c0,5.4-2.72,8.09-8.15,8.09h-28.13c-5.36,0-8.04-2.7-8.04-8.09v-80.49h13.24v77.21h17.83v-77.21h13.25v80.49Z"/>
        <path class="cls-1" d="M155.65,215.78c0,5.4-2.7,8.09-8.09,8.09h-35.38v-88.59h35.15c5.25,0,7.87,2.72,7.87,8.15v22.81c0,3.02-.94,5.36-2.83,7.02-.26.23-2.57,1.68-6.91,4.36,4.49,2.76,6.87,4.26,7.13,4.53,2.04,1.77,3.06,4.21,3.06,7.3v26.32ZM142.01,167.89v-21.45h-16.58v25.98h10.19l6.4-4.53ZM142.35,212.72v-25.25l-6.51-4.3h-10.42v29.55h16.92Z"/>
      </g>
    </g>
  </g>
</svg>