<?xml version="1.0" encoding="UTF-8"?>
<svg id="Capa_2" data-name="Capa 2" xmlns="http://www.w3.org/2000/svg" viewBox="0 0 384.85 78.79">
  <defs>
    <style>
      .cls-1 {
        fill: #fff;
      }

      .cls-2 {
        fill: #ff9000;
      }
    </style>
  </defs>
  <g id="Logos">
    <g>
      <rect x="46.72" width="134.81" height="78.79" rx="5.72" ry="5.72"/>
      <rect width="36.51" height="78.79" rx="5.72" ry="5.72"/>
      <g>
        <path class="cls-2" d="M83.14,5.68c8.85,0,15.3,1.81,19.37,5.44,4.06,3.63,6.1,8.72,6.1,15.29,0,2.94-.46,5.74-1.38,8.42-.92,2.67-2.43,5.04-4.52,7.1-2.09,2.06-4.85,3.69-8.28,4.88-3.42,1.19-7.64,1.78-12.64,1.78h-7.31v25.65h-11.25V5.68h19.93ZM82.39,15.05h-7.92v24.1h6.14c3.53,0,6.52-.41,8.98-1.24,2.45-.83,4.32-2.15,5.6-3.96,1.28-1.81,1.92-4.19,1.92-7.13,0-3.97-1.2-6.92-3.59-8.86-2.39-1.94-6.1-2.91-11.14-2.91Z"/>
        <path class="cls-2" d="M148.3,14.26c-3.28,0-6.21.59-8.79,1.78-2.58,1.19-4.76,2.91-6.54,5.16-1.78,2.25-3.14,4.96-4.08,8.14s-1.41,6.75-1.41,10.71c0,5.28.75,9.84,2.25,13.67,1.5,3.83,3.78,6.77,6.85,8.82,3.06,2.05,6.92,3.07,11.58,3.07,2.94,0,5.78-.28,8.53-.84,2.75-.56,5.6-1.33,8.53-2.3v9.57c-2.78,1.09-5.6,1.89-8.44,2.39-2.85.5-6.13.75-9.85.75-7.03,0-12.86-1.45-17.47-4.36-4.61-2.91-8.04-7-10.29-12.29-2.25-5.28-3.38-11.47-3.38-18.57,0-5.19.71-9.93,2.13-14.23,1.42-4.3,3.52-8.02,6.28-11.16,2.77-3.14,6.17-5.57,10.2-7.29,4.03-1.72,8.67-2.58,13.93-2.58,3.44,0,6.81.39,10.13,1.17,3.31.78,6.41,1.86,9.28,3.24l-3.94,9.29c-2.38-1.09-4.87-2.06-7.48-2.88-2.61-.83-5.29-1.24-8.04-1.24Z"/>
        <path class="cls-1" d="M252.62,74.23h-11.25v-30.95h-31.56v30.95h-11.25V5.68h11.25v28.04h31.56V5.68h11.25v68.56Z"/>
        <path class="cls-1" d="M321.39,5.68v44.36c0,4.78-1.01,9.07-3.02,12.85-2.02,3.78-5.06,6.78-9.12,8.98-4.06,2.2-9.18,3.31-15.33,3.31-8.78,0-15.47-2.31-20.07-6.92-4.6-4.61-6.89-10.75-6.89-18.41V5.68h11.3v43.19c0,5.72,1.34,9.94,4.03,12.66,2.69,2.72,6.71,4.08,12.05,4.08,3.66,0,6.65-.65,8.98-1.95,2.33-1.3,4.06-3.2,5.18-5.72,1.13-2.52,1.69-5.56,1.69-9.12V5.68h11.21Z"/>
      </g>
      <circle class="cls-1" cx="18.25" cy="39.4" r="8.62"/>
      <path class="cls-1" d="M335.71,5.68h20.4c8.85,0,15.52,1.28,20.02,3.85,4.5,2.56,6.75,7,6.75,13.32,0,2.63-.46,4.99-1.38,7.08-.92,2.09-2.26,3.82-4.01,5.18-1.75,1.36-3.91,2.27-6.47,2.74v.47c2.66.47,5.02,1.3,7.1,2.49,2.08,1.19,3.72,2.89,4.92,5.11,1.2,2.22,1.81,5.1,1.81,8.63,0,4.19-.99,7.75-2.98,10.69-1.99,2.94-4.81,5.17-8.49,6.71-3.67,1.53-8.03,2.3-13.06,2.3h-24.62V5.68ZM346.96,33.95h10.79c5.1,0,8.62-.83,10.57-2.49,1.95-1.66,2.93-4.06,2.93-7.22s-1.17-5.63-3.49-7.06c-2.33-1.42-6.01-2.13-11.04-2.13h-9.75v18.9ZM346.96,43.1v21.71h11.86c5.22,0,8.89-1.02,11.02-3.05,2.13-2.03,3.19-4.78,3.19-8.25,0-2.12-.47-3.97-1.41-5.53-.94-1.56-2.49-2.77-4.64-3.61-2.16-.84-5.06-1.27-8.72-1.27h-11.3Z"/>
    </g>
  </g>
</svg>